<?xml version="1.0" standalone="no"?>
<!DOCTYPE svg PUBLIC "-//W3C//DTD SVG 20010904//EN"
 "http://www.w3.org/TR/2001/REC-SVG-20010904/DTD/svg10.dtd">
<svg version="1.0" xmlns="http://www.w3.org/2000/svg"
 width="800.000000pt" height="800.000000pt" viewBox="0 0 800.000000 800.000000"
 preserveAspectRatio="xMidYMid meet">

<g transform="translate(0.000000,800.000000) scale(0.100000,-0.100000)"
fill="rgba(245,245,245,0.5)" stroke="none">
<path d="M17 7983 c-1 -1 -1 -431 1 -957 l2 -956 948 0 c521 0 952 4 957 8 7
5 10 334 10 955 0 940 0 947 -20 947 -356 2 -1897 5 -1898 3z m1643 -947 c0
-614 -2 -684 -16 -690 -20 -8 -1328 -8 -1348 0 -14 6 -16 76 -16 690 l0 684
690 0 690 0 0 -684z"/>
<path d="M555 7437 c-3 -6 -4 -192 -3 -412 l3 -400 410 0 410 0 3 413 2 412
-410 0 c-320 0 -412 -3 -415 -13z"/>
<path d="M2204 7975 c-2 -5 -3 -251 -2 -545 l3 -535 143 -3 142 -3 0 -129 0
-129 -142 -3 -143 -3 -2 -272 -2 -273 144 0 145 0 0 130 0 130 140 0 140 0 0
-415 0 -416 133 3 132 3 3 143 3 143 137 -3 137 -3 3 -142 3 -143 129 0 130 0
0 -265 c0 -146 1 -268 3 -271 1 -3 -58 -5 -130 -5 l-133 2 0 -135 0 -135 -141
-3 -141 -3 1 -137 2 -138 -275 0 -275 0 -3 -143 -3 -142 -140 0 -139 0 -1 140
0 140 -132 3 -133 3 0 139 0 140 -140 0 -140 0 0 135 0 135 273 2 272 3 0 135
0 135 -272 3 -273 2 0 130 0 129 138 3 137 3 0 140 0 140 -412 3 -412 2 -3
-142 -3 -143 -272 -3 -272 -2 -3 142 -3 143 -267 3 -267 2 -3 -275 -3 -275
133 0 132 0 0 -140 c0 -126 -2 -140 -17 -140 -10 -1 -67 -2 -128 -3 -60 -1
-111 -5 -112 -9 -2 -5 -3 -64 -3 -133 l0 -125 130 0 130 0 0 135 0 135 272 -2
273 -3 0 -130 0 -130 -132 -3 -133 -3 0 -139 0 -140 -140 0 -140 0 0 -145 0
-145 140 0 140 0 0 -270 0 -270 136 0 c123 0 135 2 133 18 -1 9 -1 72 0 140
l1 122 140 0 140 0 0 130 0 130 140 0 140 0 0 -270 0 -270 135 0 135 0 0 -135
0 -135 -550 0 -550 0 0 -140 0 -140 275 0 275 0 0 -275 0 -275 -139 0 -140 0
-3 -140 -3 -140 283 0 282 0 0 415 0 415 135 0 135 0 0 -135 0 -135 140 0 140
0 0 135 0 136 132 -3 131 -3 -1 -132 -2 -133 145 0 145 0 0 -280 0 -280 413
-2 412 -3 3 -132 3 -133 -276 0 -275 0 0 -140 0 -140 -282 -2 -283 -3 -3 -272
-2 -273 145 0 145 0 0 -275 0 -275 -144 0 -145 0 -1 -270 -1 -270 146 0 145 0
0 270 0 270 140 0 140 0 0 275 0 275 135 0 136 0 -2 138 -1 137 141 3 141 3 0
274 0 275 275 0 275 0 0 -140 0 -139 -142 -3 -143 -3 -3 -272 -2 -273 -130 0
-130 0 0 -140 0 -139 -142 -3 c-79 -2 -142 -6 -140 -10 1 -5 2 -127 2 -273 l0
-265 270 0 270 0 0 140 0 140 285 0 285 0 0 690 0 690 275 0 275 0 0 275 0
275 130 0 130 0 0 -140 0 -139 143 -3 142 -3 0 -130 0 -130 -142 -3 -143 -3 0
-139 0 -140 -272 -2 -273 -3 0 -130 0 -130 415 -5 415 -5 3 -137 3 -138 269 0
270 0 0 -140 0 -140 419 0 420 0 -2 -132 -2 -133 -272 -3 -273 -2 0 -140 0
-140 -275 0 -275 0 -2 273 -3 272 -137 3 -137 3 -3 137 -3 137 -142 3 -143 3
0 -276 0 -275 -130 0 -129 0 -3 133 -3 132 -140 0 -140 0 0 -130 0 -130 143
-3 142 -3 0 -139 0 -139 -142 -3 -143 -3 -3 -127 -3 -128 420 0 421 0 0 130 0
130 140 0 140 0 0 -130 0 -130 415 0 415 0 0 130 0 131 133 -3 132 -3 1 -128
2 -128 138 0 139 0 3 130 3 131 275 0 275 0 -3 -130 -3 -130 143 0 142 0 0
130 0 130 -140 0 -140 0 0 140 0 140 265 0 265 0 0 135 0 135 -125 0 -125 0 0
140 0 140 125 0 125 0 0 140 0 140 -125 0 -125 0 0 135 0 135 125 0 125 0 0
140 0 140 -125 0 -125 0 0 -140 0 -140 -142 0 -143 0 0 272 0 273 -272 3 -273
2 0 140 0 140 -415 0 -415 0 0 140 0 140 140 0 140 0 0 135 0 136 133 -3 132
-3 1 -130 0 -130 417 -3 417 -2 0 -140 0 -140 140 0 140 0 0 275 0 275 125 0
125 0 0 140 0 140 -125 0 -125 0 0 405 0 404 -141 3 -140 3 0 140 0 140 140 3
141 3 0 139 0 140 -285 0 -286 0 3 133 3 132 143 3 142 3 0 269 0 270 265 0
265 0 0 145 0 145 -540 0 -540 0 0 -145 0 -146 -142 3 -141 3 -1 140 -1 140
-132 3 -132 3 -3 -143 -3 -143 -283 -3 -283 -2 3 -270 c3 -264 3 -270 -17
-270 -11 0 -134 -1 -273 -3 l-253 -2 -2 -272 -2 -272 140 -3 140 -3 3 -143 3
-143 130 3 131 3 1 140 2 140 140 0 140 0 3 -272 2 -273 140 0 140 0 0 130 0
130 136 0 136 0 -3 -127 -4 -128 415 -5 415 -5 3 -137 3 -138 -276 0 -275 0 0
-135 0 -135 -142 0 -143 0 0 132 0 133 -272 3 -273 2 0 -135 0 -134 -142 -3
-143 -3 0 -135 0 -135 143 -3 142 -3 0 -135 0 -135 -142 3 -143 3 -3 133 -3
132 -129 0 -130 0 0 275 0 275 133 0 132 0 -3 140 -3 140 -270 0 -269 0 0 130
0 130 -145 0 -145 0 0 -130 0 -130 -272 -2 -273 -3 -2 -137 -2 -137 142 -3
142 -3 3 -132 3 -133 -276 0 -275 0 0 -140 0 -140 -140 0 -140 0 0 140 0 140
-145 0 -145 0 0 135 0 135 -130 0 -130 0 0 140 0 140 130 0 130 0 0 130 0 130
145 0 145 0 0 -270 0 -270 140 0 140 0 0 270 0 270 -140 0 -140 0 0 145 0 145
140 0 140 0 0 275 0 275 -140 0 -140 0 0 270 0 270 -145 0 -145 0 0 145 0 145
-130 0 -130 0 0 140 0 140 129 0 130 0 3 130 3 130 -132 0 -133 0 0 -130 0
-130 -140 0 -140 0 -2 548 -3 547 -132 3 -133 3 0 129 0 130 -140 0 -140 0 -2
272 -3 272 -139 0 c-84 1 -140 -3 -142 -9z m-1644 -2595 l0 -130 -140 0 -140
0 0 130 0 130 140 0 140 0 0 -130z m6610 0 l0 -130 -130 0 -130 0 0 130 0 130
130 0 130 0 0 -130z m-5510 -270 l0 -140 -275 0 -275 0 0 140 0 140 275 0 275
0 0 -140z m4966 -3 l1 -138 139 -2 139 -2 3 -272 2 -273 130 0 130 0 0 -145 0
-145 -130 0 -130 0 0 145 0 145 -142 0 -143 0 0 137 0 138 -272 3 -273 2 0
135 0 135 140 0 140 0 0 140 0 141 133 -3 132 -3 1 -138z m-5516 -547 l0 -140
-140 0 -139 0 -3 -142 -3 -143 -132 -3 -133 -3 0 146 0 145 135 0 135 0 0 140
0 140 140 0 140 0 0 -140z m550 0 l0 -140 140 0 141 0 -3 -142 -3 -143 -272
-3 -273 -2 0 285 0 285 135 0 135 0 0 -140z m1920 0 l0 -140 -130 0 -129 0 -3
-142 -3 -143 -137 0 c-76 0 -138 3 -138 8 0 4 0 68 0 142 l0 135 140 0 140 0
0 140 0 140 130 0 130 0 0 -140z m-1092 -832 l3 -137 137 -3 137 -3 3 -132 3
-133 135 0 135 0 -2 133 -1 132 141 3 141 3 0 -136 0 -135 130 0 130 0 0 -275
0 -275 416 2 416 3 1 130 2 130 143 3 142 3 0 139 0 140 130 0 129 0 3 133 3
132 140 0 140 0 0 -273 0 -272 143 0 142 0 0 -135 0 -135 -140 0 -140 0 0
-140 0 -140 -145 0 -145 0 0 140 0 140 -130 0 -130 0 0 -140 0 -139 -142 -3
-143 -3 0 -138 0 -137 -132 0 -133 0 0 -135 0 -135 -140 0 -139 0 -3 133 -3
132 -142 3 -143 3 0 279 0 280 -130 0 -130 0 0 -140 0 -140 -275 0 -275 0 0
140 0 140 -140 0 -140 0 0 275 0 275 -143 0 -144 0 1 133 1 132 -272 3 -273 2
0 140 0 140 413 -2 412 -3 3 -137z m-548 -548 l0 -140 -140 0 -140 0 0 140 0
140 140 0 140 0 0 -140z m4420 0 l0 -140 -140 0 -140 0 0 140 0 140 140 0 140
0 0 -140z m810 0 l0 -140 -130 0 -130 0 0 140 0 140 130 0 130 0 0 -140z
m-545 -1380 l0 -405 -415 0 -415 0 -3 395 c-1 217 0 401 3 408 3 10 92 12 417
10 l413 -3 0 -405z m-1095 0 l0 -140 -142 0 -143 0 0 140 0 140 143 0 142 0 0
-140z m1640 -275 l0 -135 285 0 285 0 0 -140 0 -140 -285 0 -285 0 0 140 0
140 -130 0 -130 0 0 135 0 135 130 0 130 0 0 -135z m-260 -555 l0 -140 130 0
130 0 0 -135 0 -135 -130 0 -129 0 -3 133 -3 132 -137 3 -137 3 -3 129 c-2 72
-1 135 0 140 2 6 61 10 143 10 l139 0 0 -140z m-1662 -552 l3 -138 -146 0
-145 0 0 140 0 141 143 -3 142 -3 3 -137z"/>
<path d="M4967 3034 c-4 -4 -7 -65 -7 -136 l0 -128 145 0 146 0 -3 133 -3 132
-136 3 c-74 1 -138 -1 -142 -4z"/>
<path d="M6080 1800 l0 -140 140 0 140 0 0 140 0 140 -140 0 -140 0 0 -140z"/>
<path d="M3584 7981 c-2 -2 -4 -62 -4 -133 l0 -128 -269 0 -270 0 -3 -136 c-2
-75 -1 -138 1 -140 2 -2 67 -4 143 -4 l138 0 0 -405 0 -405 415 0 415 0 0 130
0 129 131 3 131 3 0 140 -1 140 -131 3 -130 3 0 269 0 270 134 0 134 0 -1
-137 -2 -138 273 -3 272 -2 0 140 0 140 -130 0 -130 0 0 130 0 130 -259 0
c-143 0 -266 3 -275 6 -14 5 -16 -10 -16 -130 l0 -136 -140 0 -139 0 -3 131
-3 131 -138 1 c-76 1 -141 0 -143 -2z m284 -673 l-3 -413 -140 0 -140 0 -3
413 -2 412 145 0 145 0 -2 -412z"/>
<path d="M5528 7855 l-3 -130 -137 -3 -138 -3 0 -269 0 -270 273 0 272 0 0
400 c0 220 -2 400 -5 400 -3 0 -62 1 -132 3 l-127 2 -3 -130z"/>
<path d="M6080 7028 l0 -958 955 0 955 0 0 958 0 957 -955 0 -955 0 0 -957z
m1655 7 c0 -678 0 -686 -20 -691 -11 -2 -321 -3 -690 -2 l-670 3 -3 688 -2
687 692 0 693 0 0 -685z"/>
<path d="M6630 7035 l0 -415 413 2 412 3 0 410 0 410 -412 3 -413 2 0 -415z"/>
<path d="M4964 7167 c-2 -7 -3 -71 -2 -143 l3 -129 140 0 140 0 0 140 0 140
-138 3 c-107 2 -139 0 -143 -11z"/>
<path d="M4416 6623 c-3 -4 -6 -126 -6 -272 l1 -266 -130 -3 -131 -3 0 131 0
130 -140 0 -140 0 0 -270 0 -270 274 0 274 0 -4 140 -5 140 146 0 145 0 0 130
0 129 128 3 127 3 3 143 3 142 -269 0 c-148 0 -272 -3 -276 -7z"/>
<path d="M5530 6355 l0 -275 -140 0 -140 0 0 130 0 130 -145 0 -145 0 0 -130
0 -129 143 -3 142 -3 0 -413 0 -412 143 0 142 0 0 415 0 415 133 0 132 0 -3
275 -3 275 -129 0 -130 0 0 -275z"/>
<path d="M2201 5380 l3 -130 143 0 143 0 0 -140 0 -140 -127 -1 c-71 -1 -135
-2 -143 -3 -12 -1 -15 -24 -17 -133 l-1 -133 284 0 283 0 3 133 3 132 133 3
133 3 -3 137 -3 137 -272 3 -273 2 0 130 0 130 -146 0 -145 0 2 -130z"/>
<path d="M4413 5380 l2 -130 -133 0 -133 0 3 -142 c2 -79 6 -142 11 -140 4 1
126 2 272 2 l265 0 0 270 0 270 -145 0 -144 0 2 -130z"/>
<path d="M7740 5110 l0 -140 125 0 125 0 0 140 0 140 -125 0 -125 0 0 -140z"/>
<path d="M4414 4687 c-2 -7 -3 -135 -2 -283 l3 -269 140 0 140 0 3 143 3 142
129 0 130 0 0 140 0 140 -270 0 c-214 0 -272 -3 -276 -13z"/>
<path d="M18 3184 c-2 -75 -1 -138 1 -140 2 -2 62 -4 133 -4 l128 0 0 140 0
140 -129 0 -130 0 -3 -136z"/>
<path d="M560 2630 l0 -140 -270 0 -270 0 0 -140 0 -140 270 0 270 0 0 140 0
139 133 3 132 3 3 138 3 137 -136 0 -135 0 0 -140z"/>
<path d="M1660 2350 l0 -140 273 2 272 3 0 135 0 135 -272 3 -273 2 0 -140z"/>
<path d="M2206 2128 c-4 -46 -6 -107 -5 -135 l3 -53 143 0 144 0 -3 133 -3
132 -136 3 -137 3 -6 -83z"/>
<path d="M20 1918 c-2 -671 1 -1898 5 -1898 3 0 434 0 958 0 l952 0 -3 955 -2
955 -955 2 c-904 3 -955 2 -955 -14z m1640 -948 l0 -690 -690 0 -690 0 0 690
0 690 690 0 690 0 0 -690z"/>
<path d="M556 1373 c-3 -10 -5 -196 -3 -413 l2 -395 413 -3 412 -2 0 415 0
415 -409 0 c-381 0 -410 -1 -415 -17z"/>
<path d="M3870 150 l0 -130 140 0 140 0 0 130 0 130 -140 0 -140 0 0 -130z"/>
</g>
</svg>
