<?xml version="1.0" standalone="no"?>
<!DOCTYPE svg PUBLIC "-//W3C//DTD SVG 20010904//EN"
 "http://www.w3.org/TR/2001/REC-SVG-20010904/DTD/svg10.dtd">
<svg version="1.0" xmlns="http://www.w3.org/2000/svg"
 width="180.000000pt" height="180.000000pt" viewBox="0 0 180.000000 180.000000"
 preserveAspectRatio="xMidYMid meet">

<g transform="translate(0.000000,180.000000) scale(0.100000,-0.100000)"
fill="#000000" stroke="none">
<path d="M640 1563 c-1 -83 -72 -176 -172 -227 -29 -14 -89 -40 -133 -56 -105
-40 -163 -83 -199 -151 -79 -143 -2 -299 166 -339 82 -20 230 10 287 58 18 15
18 19 7 35 -13 16 -17 16 -72 -10 -40 -18 -81 -28 -131 -31 -64 -4 -79 -1
-127 22 -119 58 -138 180 -45 281 40 43 59 54 196 105 152 57 251 155 273 268
12 63 5 82 -26 82 -21 0 -24 -5 -24 -37z"/>
<path d="M589 1127 c-62 -33 -101 -92 -107 -162 -2 -30 -1 -55 3 -55 20 0 95
52 95 66 0 9 13 29 29 45 41 41 107 41 153 1 27 -25 31 -36 31 -76 0 -39 -5
-52 -29 -77 -19 -18 -45 -32 -69 -36 -22 -3 -59 -19 -83 -34 -43 -27 -43 -28
-21 -40 13 -7 48 -15 78 -18 l55 -6 112 -195 c121 -210 171 -272 249 -310 106
-50 244 -22 326 67 78 85 104 186 74 289 -19 67 -105 218 -159 281 -32 37
-119 103 -136 103 -3 0 2 -39 12 -87 10 -49 21 -137 24 -197 l7 -108 47 53 47
54 25 -50 c51 -101 45 -168 -21 -234 -71 -71 -183 -74 -246 -6 -16 18 -78 116
-137 218 l-107 187 23 42 c33 60 39 105 21 164 -15 53 -57 100 -112 128 -48
24 -131 21 -184 -7z"/>
</g>
</svg>
