<?xml version="1.0" standalone="no"?>
<!DOCTYPE svg PUBLIC "-//W3C//DTD SVG 20010904//EN"
 "http://www.w3.org/TR/2001/REC-SVG-20010904/DTD/svg10.dtd">
<svg version="1.0" xmlns="http://www.w3.org/2000/svg"
 width="500.000000pt" height="275.000000pt" viewBox="0 0 501.000000 303.000000"
 preserveAspectRatio="xMidYMid meet">

<g transform="translate(0.000000,303.000000) scale(0.100000,-0.100000)"
fill="#ffffff" stroke="none">
<path d="M540 2988 c0 -109 -109 -215 -275 -268 -111 -35 -199 -101 -234 -175
-27 -58 -28 -142 -2 -194 27 -52 91 -107 143 -123 88 -26 237 -4 314 47 20 13
22 18 12 34 -11 18 -13 17 -66 -6 -78 -36 -201 -43 -264 -15 -55 24 -97 81
-105 141 -4 31 1 53 21 94 31 65 72 96 182 138 199 77 297 162 324 283 13 61
6 86 -26 86 -22 0 -24 -4 -24 -42z"/>
<path d="M499 2560 c-71 -37 -119 -115 -119 -192 0 -16 3 -28 7 -28 18 0 93
53 93 66 0 9 13 29 29 45 25 24 38 29 79 29 82 0 127 -61 103 -140 -13 -43
-61 -80 -105 -80 -14 0 -45 -13 -67 -30 l-42 -30 36 -15 c20 -8 53 -15 74 -15
l38 0 110 -192 c108 -190 173 -276 227 -304 l28 -15 0 -169 c0 -157 2 -172 20
-190 25 -25 55 -25 80 0 17 17 20 33 20 105 l0 85 74 0 75 0 76 -105 c65 -89
81 -105 104 -105 36 0 65 32 58 62 -4 13 -31 58 -62 100 l-56 78 36 31 c52 46
75 97 75 166 0 64 -22 122 -62 164 -18 20 -27 43 -32 85 -15 135 -168 363
-285 424 -23 12 -24 11 -18 -16 19 -86 37 -228 37 -294 l1 -75 48 54 48 55 26
-45 c14 -24 28 -59 32 -76 l7 -33 -136 0 c-128 0 -136 -1 -150 -22 -9 -13 -16
-44 -17 -73 0 -50 0 -50 -17 -26 -9 12 -65 106 -124 208 l-108 186 19 26 c41
58 48 148 16 211 -20 37 -75 86 -114 99 -50 16 -121 13 -162 -9z m751 -709 c0
-16 -63 -58 -102 -69 l-38 -10 0 44 0 44 70 0 c39 0 70 -4 70 -9z m126 -106
c8 -42 -18 -99 -58 -129 -22 -15 -48 -21 -118 -24 l-90 -4 0 26 c0 23 4 26 33
26 50 0 128 42 172 93 22 25 43 46 47 46 4 1 10 -15 14 -34z"/>
<path d="M2152 1954 c-22 -15 -22 -16 -22 -333 0 -266 2 -321 15 -331 22 -18
48 -8 65 27 l15 31 34 -29 c45 -37 124 -54 182 -39 113 31 189 128 189 243 0
74 -15 117 -57 167 -74 87 -195 114 -287 65 l-46 -24 0 104 c0 96 -2 105 -22
119 -12 9 -27 16 -33 16 -6 0 -21 -7 -33 -16z m305 -304 c85 -52 84 -190 -3
-246 -16 -11 -45 -18 -73 -18 -82 0 -141 60 -141 144 0 83 57 140 140 140 27
0 58 -8 77 -20z"/>
<path d="M2772 1948 c-43 -21 -43 -83 1 -108 24 -13 30 -13 54 0 45 25 44 87
-2 108 -14 7 -27 12 -28 11 -1 0 -12 -5 -25 -11z"/>
<path d="M1592 1764 c-13 -9 -22 -26 -22 -40 0 -14 39 -110 87 -212 48 -103
86 -195 86 -205 -3 -36 -52 -86 -96 -98 -75 -20 -87 -27 -87 -52 0 -55 69 -73
145 -38 74 33 112 91 226 342 59 129 110 242 113 252 4 12 -3 27 -19 43 -49
49 -70 30 -134 -121 -80 -192 -82 -197 -87 -192 -3 2 -34 74 -69 158 -76 180
-92 199 -143 163z"/>
<path d="M2780 1773 c-37 -13 -40 -33 -40 -245 0 -195 1 -209 20 -228 35 -35
82 -19 96 34 3 12 4 109 2 215 -3 189 -3 193 -27 212 -24 20 -27 21 -51 12z"/>
<path d="M3104 1756 c-62 -29 -110 -84 -129 -150 -20 -67 -19 -105 5 -170 60
-159 269 -214 376 -99 l24 26 0 -30 c0 -50 41 -70 74 -37 14 13 16 49 16 234
l0 220 -25 16 c-24 16 -27 16 -45 -1 -11 -10 -20 -29 -20 -43 l0 -26 -27 27
c-64 60 -162 74 -249 33z m202 -117 c102 -95 46 -252 -90 -252 -146 0 -197
186 -73 264 45 28 127 22 163 -12z"/>
<path d="M3617 1762 c-15 -16 -17 -48 -17 -238 0 -236 2 -244 50 -244 48 0 58
23 62 155 3 105 6 125 26 158 27 42 57 61 117 72 53 9 65 21 65 61 0 23 -6 37
-19 44 -43 23 -125 3 -176 -42 -33 -28 -35 -29 -35 -9 0 21 -32 61 -48 61 -5
0 -16 -8 -25 -18z"/>
<path d="M4013 1770 c-30 -12 -38 -46 -19 -75 16 -24 19 -25 147 -25 l131 0
-146 -152 c-153 -161 -168 -185 -128 -221 16 -15 46 -17 218 -17 109 0 204 4
210 8 38 25 32 88 -10 97 -12 3 -77 6 -145 8 l-124 2 146 152 c162 167 172
189 110 222 -26 13 -356 14 -390 1z"/>
<path d="M4681 1766 c-167 -60 -215 -293 -85 -422 42 -43 116 -74 174 -74 80
0 190 60 190 104 0 48 -37 58 -100 26 -24 -12 -59 -20 -91 -20 -46 0 -55 4
-90 39 -22 21 -39 44 -39 50 0 8 48 11 158 11 189 0 202 5 202 78 -1 86 -54
166 -135 203 -46 21 -133 24 -184 5z m155 -102 c32 -15 64 -57 64 -84 0 -6
-46 -10 -130 -10 -143 0 -149 3 -108 55 41 52 112 68 174 39z"/>
</g>
</svg>
